# AST/ASF file generated using VICON BodyLanguage
# -----------------------------------------------
:version 1.10
:name VICON
:units
  mass 1.0
  length 0.45
  angle deg
:documentation
   .ast/.asf automatically generated from VICON data using
   VICON BodyBuilder and BodyLanguage model FoxedUp or BRILLIANT.MOD
:root
   order TX TY TZ RX RY RZ
   axis XYZ
   position 0 0 0  
   orientation 0 0 0 
:bonedata
  begin
     id 1 
     name lhipjoint
     direction 0.643824 -0.71708 0.266994 
     length 2.52133 
     axis 0 0 0  XYZ
  end
  begin
     id 2 
     name lfemur
     direction 0.34202 -0.939693 0  
     length 7.51824  
     axis 0 0 20  XYZ
    dof rx ry rz
    limits (-160.0 20.0)
           (-70.0 70.0)
           (-60.0 70.0)
  end
  begin
     id 3 
     name ltibia
     direction 0.34202 -0.939693 0   
     length 7.3685   
     axis 0 0 20   XYZ
    dof rx
    limits (-10.0 170.0)
  end
  begin
     id 4 
     name lfoot
     direction 0.105419 -0.289636 0.951314   
     length 2.20972   
     axis -90 7.62852e-016 20   XYZ
    dof rx rz
    limits (-45.0 90.0)
           (-70.0 20.0)
  end
  begin
     id 5 
     name ltoes
     direction 1.53549e-011 -4.21833e-011 1   
     length 1.10139   
     axis -90 7.62852e-016 20   XYZ
    dof rx
    limits (-90.0 20.0)
  end
  begin
     id 6 
     name rhipjoint
     direction -0.608823 -0.743445 0.276811   
     length 2.43192  
     axis 0 0 0  XYZ 
  end
  begin
     id 7 
     name rfemur
     direction -0.34202 -0.939693 0   
     length 7.69715   
     axis 0 0 -20   XYZ
    dof rx ry rz
    limits (-160.0 20.0)
           (-70.0 70.0)
           (-70.0 60.0)
  end
  begin
     id 8 
     name rtibia
     direction -0.34202 -0.939693 0   
     length 7.44924   
     axis 0 0 -20   XYZ
    dof rx
    limits (-10.0 170.0)
 end
 begin
     id 9 
     name rfoot
     direction -0.103614 -0.284677 0.953007   
     length 2.22623  
     axis -90 -7.62852e-016 -20   XYZ
    dof rx rz
    limits (-45.0 90.0)
           (-20.0 70.0)
  end
  begin
     id 10 
     name rtoes
     direction -1.53537e-011 -4.22026e-011 1   
     length 1.11   
     axis -90 -7.62852e-016 -20   XYZ
    dof rx
    limits (-90.0 20.0)
  end
  begin
     id 11 
     name lowerback
     direction -0.0101212 0.99662 -0.0815298   
     length 2.08277   
     axis 0 0 0   XYZ
    dof rx ry rz
    limits (-20.0 45.0)
           (-30.0 30.0)
           (-30.0 30.0)
  end
  begin
     id 12 
     name upperback
     direction 0.024314 0.999591 -0.0150645   
     length 2.08524   
     axis 0 0 0   XYZ
    dof rx ry rz
    limits (-20.0 45.0)
           (-30.0 30.0)
           (-30.0 30.0)
  end
  begin
     id 13 
     name thorax
     direction 0.0285959 0.999323 0.0231357   
     length 2.09645   
     axis 0 0 0   XYZ
    dof rx ry rz
    limits (-20.0 45.0)
           (-30.0 30.0)
           (-30.0 30.0)
  end
  begin
     id 14 
     name lowerneck
     direction -0.065512 0.979301 0.191515   
     length 1.63798   
     axis 0 0 0   XYZ
    dof rx ry rz
    limits (-20.0 45.0)
           (-30.0 30.0)
           (-30.0 30.0)
  end
  begin
     id 15 
     name upperneck
     direction 0.0498479 0.98191 -0.182667   
     length 1.68731   
     axis 0 0 0   XYZ
    dof rx ry rz
    limits (-20.0 45.0)
           (-30.0 30.0)
           (-30.0 30.0)
  end
  begin
     id 16
     name head
     direction 0.0230358 0.996257 -0.0833175  
     length 1.69785  
     axis 0 0 0   XYZ
    dof rx ry rz
    limits (-20.0 45.0)
           (-30.0 30.0)
           (-30.0 30.0)
  end
  begin
     id 17 
     name lclavicle
     direction 0.967963 0.201165 -0.150269  
     length 3.63976  
     axis 0 0 0   XYZ
    dof ry rz
    limits (-20.0 10.0)
           (0.0 20.0)
  end
  begin
     id 18 
     name lhumerus
     direction 1 -4.48954e-011 -2.92837e-028   
     length 5.32462   
     axis 180 -30 -90   XYZ
    dof rx ry rz
    limits (-60.0 90.0)
           (-90.0 90.0)
           (-90.0 90.0)
  end
  begin
     id 19
     name lradius
     direction 1 -4.48958e-011 -6.39511e-027   
     length 3.48402   
     axis 180 -30 -90   XYZ
    dof rx
    limits (-10.0 170.0)
  end
  begin
     id 20
     name lwrist
     direction 1 -4.48975e-011 -1.1413e-026   
     length 1.74201   
     axis 6.88575e-015 90 90   XYZ
    dof ry
    limits (-180.0 0.0)
 end
  begin
     id 21 
     name lhand
     direction 1 -4.48899e-011 -2.28192e-026   
     length 0.572476   
     axis 1.45643e-014 90 90   XYZ
    dof rx rz
    limits (-90.0 90.0)
           (-45.0 45.0)
  end
  begin
     id 22 
     name lfingers
     direction 1 -4.49155e-011 -4.5684e-026   
     length 0.461545   
     axis 2.91283e-014 90 90   XYZ
    dof rx
    limits (0.0 90.0)
  end
  begin
     id 23
     name lthumb
     direction 0.707107 -6.34943e-011 0.707107   
     length 0.662688   
     axis -90 45 -2.25915e-014   XYZ
    dof rx rz
    limits (-45.0 45.0)
           (-45.0 45.0)
  end
  begin
     id 24 
     name rclavicle
     direction -0.964103 0.264019 -0.0282629   
     length 3.54491  
     axis 0 0 0   XYZ 
    dof ry rz
    limits (-10.0 20.0)
           (-20.0 0.0)
  end
  begin
     id 25 
     name rhumerus
     direction -1 -4.48964e-011 -2.45032e-027  
     length 5.33589   
     axis 180 30 90   XYZ
    dof rx ry rz
    limits (-90.0 60.0)
           (-90.0 90.0)
           (-90.0 90.0)
  end
  begin
     id 26 
     name rradius
     direction -1 -4.48987e-011 -1.55093e-027   
     length 3.64134   
     axis 180 30 90   XYZ
    dof rx
    limits (-10.0 170.0)
  end
  begin
     id 27 
     name rwrist
     direction -1 -4.4897e-011 -1.14128e-026   
     length 1.82067   
     axis 6.88575e-015 -90 -90   XYZ
    dof ry
    limits (-180.0 0.0)
  end
  begin
     id 28
     name rhand
     direction -1 -4.49021e-011 -2.28301e-026   
     length 0.734811   
     axis 1.45643e-014 -90 -90   XYZ
    dof rx rz
    limits (-90.0 90.0)
           (-45.0 45.0)
  end
  begin
     id 29
     name rfingers
     direction -1 -4.48862e-011 -4.56319e-026   
     length 0.592424   
     axis 2.91283e-014 -90 -90   XYZ
    dof rx
    limits (0.0 90.0)
  end
  begin
     id 30
     name rthumb
     direction -0.707107 -6.34978e-011 0.707107   
     length 0.850605   
     axis -90 -45 2.25915e-014   XYZ
    dof rx rz
    limits (-45.0 45.0)
           (-45.0 45.0)
  end
:hierarchy
  begin
    root lhipjoint rhipjoint lowerback
    lhipjoint lfemur
    lfemur ltibia
    ltibia lfoot
    lfoot ltoes
    rhipjoint rfemur
    rfemur rtibia
    rtibia rfoot
    rfoot rtoes
    lowerback upperback
    upperback thorax
    thorax lowerneck lclavicle rclavicle
    lowerneck upperneck
    upperneck head
    lclavicle lhumerus
    lhumerus lradius
    lradius lwrist
    lwrist lhand lthumb
    lhand lfingers
    rclavicle rhumerus
    rhumerus rradius
    rradius rwrist
    rwrist rhand rthumb
    rhand rfingers
  end

#!OML:ASF F:\VICON\USERDATA\INSTALL\rory3\rory3.ASF
:FULLY-SPECIFIED
:DEGREES
1
root 1.32407 17.6376 12.3966 -175.349 0.973576 178.712
lowerback -0.189289 -0.139758 -6.08613
upperback -0.481512 -0.18333 1.07765
thorax -0.367971 -0.0662591 4.53023
lowerneck -20.1384 -2.57838 -7.66617
upperneck 36.7515 1.06412 2.83917
head 16.669 0.768195 3.12454
rclavicle -2.55935e-015 9.83984e-015
rhumerus -35.5679 -8.76078 -79.9811
rradius 33.2134
rwrist 21.2938
rhand -17.7103 4.44858
rfingers 7.12502
rthumb 8.54991 -25.3583
lclavicle -2.55935e-015 9.83984e-015
lhumerus -31.0901 8.8415 84.7073
lradius 27.3296
lwrist -10.9366
lhand -13.1606 25.1013
lfingers 7.12502
lthumb 12.9383 54.6802
rfemur -15.7724 4.93314 16.5448
rtibia 35.0118
rfoot -22.2286 -4.61573
rtoes 4.65704
lfemur -10.23 0.902382 -26.1107
ltibia 24.8371
lfoot -15.9729 -1.25549
ltoes 0.360081
2
root 1.32071 17.6365 12.3961 -175.317 1.05921 178.827
lowerback -0.213055 -0.120866 -5.94718
upperback -0.483472 -0.156677 1.08895
thorax -0.360118 -0.0536465 4.4633
lowerneck -20.4281 -2.52994 -7.39232
upperneck 36.9466 1.15947 2.64064
head 16.8375 0.814567 3.02155
rclavicle -2.13072e-015 -4.77083e-015
rhumerus -35.538 -8.89145 -79.9811
rradius 33.2188
rwrist 21.3884
rhand -17.4983 4.53721
rfingers 7.12502
rthumb 8.75449 -25.2612
lclavicle -2.13072e-015 -4.77083e-015
lhumerus -31.094 8.76303 84.6875
lradius 27.367
lwrist -10.8407
lhand -13.1508 25.1643
lfingers 7.12502
lthumb 12.9479 54.7426
rfemur -15.8087 4.9687 16.65
rtibia 34.9745
rfoot -22.1973 -4.55369
rtoes 4.95603
lfemur -10.3016 0.936061 -26.0042
ltibia 24.9204
lfoot -16.021 -1.1937
ltoes 0.239199
3
root 1.31769 17.6379 12.3967 -175.315 1.07833 178.885
lowerback -0.146516 -0.137354 -5.92303
upperback -0.494353 -0.183167 1.13213
thorax -0.405436 -0.0652841 4.49475
lowerneck -20.5025 -2.52563 -7.38771
upperneck 37.0104 1.19772 2.59734
head 16.888 0.823708 3.01345
rclavicle -2.19284e-015 7.15625e-015
rhumerus -35.5465 -8.78836 -80.0201
rradius 33.3277
rwrist 21.3843
rhand -17.375 4.5788
rfingers 7.12502
rthumb 8.87344 -25.2146
lclavicle -2.19284e-015 7.15625e-015
lhumerus -31.0982 8.7793 84.6998
lradius 27.324
lwrist -10.9814
lhand -13.2582 25.0613
lfingers 7.12502
lthumb 12.8443 54.6461
rfemur -15.8186 4.96717 16.7033
rtibia 34.978
rfoot -22.1362 -4.59033
rtoes 4.63291
lfemur -10.3068 0.884541 -25.9476
ltibia 24.9198
lfoot -16.0319 -1.14321
ltoes 0.300024
4
root 1.31439 17.6369 12.395 -175.337 1.1176 178.848
lowerback -0.0971856 -0.152725 -5.9917
upperback -0.48632 -0.206803 1.16042
thorax -0.421739 -0.0765669 4.56322
lowerneck -20.5169 -2.53783 -7.5021
upperneck 37.0258 1.23024 2.59471
head 16.8988 0.819359 3.03962
rclavicle 7.54761e-015 -9.34288e-015
rhumerus -35.5487 -8.59006 -80.0702
rradius 33.4145
rwrist 21.2562
rhand -17.4194 4.53568
rfingers 7.12502
rthumb 8.83065 -25.2596
lclavicle 7.54761e-015 -9.34288e-015
lhumerus -31.1009 8.72085 84.7421
lradius 27.277
lwrist -11.1384
lhand -13.1439 24.9929
lfingers 7.12502
lthumb 12.9544 54.5708
rfemur -15.8129 4.91495 16.6456
rtibia 34.9952
rfoot -22.1053 -4.54525
rtoes 4.5199
lfemur -10.2681 0.934998 -26.0087
ltibia 24.9163
lfoot -16.0162 -1.09463
ltoes 0.0185325
5
root 1.31008 17.6361 12.3917 -175.344 1.21551 178.782
lowerback -0.101364 -0.126627 -6.05275
upperback -0.490956 -0.171855 1.14363
thorax -0.428432 -0.0584762 4.58023
lowerneck -20.7029 -2.52587 -7.39831
upperneck 37.1994 1.28936 2.50913
head 17.0348 0.846363 3.0078
rclavicle -1.02498e-015 -5.86415e-015
rhumerus -35.5806 -8.5128 -80.0947
rradius 33.4623
rwrist 21.1351
rhand -17.406 4.34258
rfingers 7.12502
rthumb 8.84359 -25.4521
lclavicle -1.02498e-015 -5.86415e-015
lhumerus -31.0838 8.69179 84.7296
lradius 27.1828
lwrist -11.1844
lhand -13.0395 25.0865
lfingers 7.12502
lthumb 13.0552 54.6579
rfemur -15.8117 4.92296 16.5434
rtibia 35.0201
rfoot -22.1717 -4.38334
rtoes 4.85347
lfemur -10.2284 0.921981 -26.1128
ltibia 24.8921
lfoot -15.9726 -0.982247
ltoes -0.187769
6
root 1.3066 17.6353 12.3911 -175.34 1.27019 178.748
lowerback -0.0757152 -0.114969 -6.05896
upperback -0.512706 -0.158341 1.10991
thorax -0.46703 -0.0498369 4.54874
lowerneck -20.5399 -2.527 -7.41736
upperneck 37.1408 1.26428 2.55051
head 16.9638 0.843913 3.01973
rclavicle 8.57259e-016 -1.17283e-014
rhumerus -35.6567 -8.55457 -80.1235
rradius 33.5105
rwrist 21.144
rhand -17.4829 4.44667
rfingers 7.12502
rthumb 8.76935 -25.3511
lclavicle 8.57259e-016 -1.17283e-014
lhumerus -31.1207 8.56157 84.6884
lradius 27.1963
lwrist -11.1412
lhand -12.9733 25.2763
lfingers 7.12502
lthumb 13.1189 54.8437
rfemur -15.8411 4.87187 16.4957
rtibia 35.0494
rfoot -22.1359 -4.36334
rtoes 4.58063
lfemur -10.2207 0.887823 -26.1702
ltibia 24.8769
lfoot -15.9515 -0.912204
ltoes -0.201143
7
root 1.30434 17.6366 12.3913 -175.32 1.31896 178.747
lowerback -0.0343281 -0.0891913 -6.05722
upperback -0.551469 -0.127284 1.09168
thorax -0.53416 -0.0310298 4.52884
lowerneck -19.9599 -2.5941 -7.81804
upperneck 36.7909 1.08565 2.905
head 16.645 0.773085 3.18578
rclavicle 4.62796e-015 -1.31198e-014
rhumerus -35.7578 -8.64599 -80.1114
rradius 33.5496
rwrist 21.242
rhand -17.752 4.60204
rfingers 7.12502
rthumb 8.50966 -25.2065
lclavicle 4.62796e-015 -1.31198e-014
lhumerus -31.1749 8.49517 84.6598
lradius 27.2236
lwrist -11.1899
lhand -12.9114 25.5191
lfingers 7.12502
lthumb 13.1786 55.0826
rfemur -15.8806 4.91509 16.4799
rtibia 35.0612
rfoot -22.131 -4.39792
rtoes 4.4404
lfemur -10.2414 0.898655 -26.1792
ltibia 24.8717
lfoot -15.9466 -0.901602
ltoes -0.161022
8
root 1.30261 17.6374 12.3902 -175.294 1.34282 178.787
lowerback -0.0384285 -0.0985214 -6.0405
upperback -0.566911 -0.139634 1.11642
thorax -0.546243 -0.036417 4.54519
lowerneck -19.7841 -2.57829 -7.88372
upperneck 36.6882 1.09081 2.95272
head 16.5474 0.775581 3.21112
rclavicle 3.42282e-015 2.38542e-015
rhumerus -35.8011 -8.69697 -80.0813
rradius 33.5623
rwrist 21.4073
rhand -17.7738 4.50641
rfingers 7.12502
rthumb 8.48863 -25.303
lclavicle 3.42282e-015 2.38542e-015
lhumerus -31.2499 8.54428 84.625
lradius 27.3228
lwrist -11.164
lhand -12.8034 25.6542
lfingers 7.12502
lthumb 13.2827 55.211
rfemur -15.9171 4.88566 16.5192
rtibia 35.0673
rfoot -22.0988 -4.39987
rtoes 4.19457
lfemur -10.2662 0.914877 -26.1432
ltibia 24.8664
lfoot -15.9233 -0.899898
ltoes 0.0593604
9
root 1.30067 17.6372 12.3885 -175.268 1.37709 178.787
lowerback -0.075618 -0.13571 -6.09957
upperback -0.551031 -0.186608 1.16539
thorax -0.502931 -0.0614289 4.62961
lowerneck -20.2356 -2.50907 -7.61028
upperneck 37.0488 1.28204 2.71453
head 16.8363 0.855872 3.12207
rclavicle 1.29831e-015 6.16232e-015
rhumerus -35.7211 -8.527 -80.1028
rradius 33.5497
rwrist 21.402
rhand -17.6524 4.25156
rfingers 7.12502
rthumb 8.60581 -25.553
lclavicle 1.29831e-015 6.16232e-015
lhumerus -31.2292 8.76704 84.5975
lradius 27.3095
lwrist -11.1989
lhand -12.9107 25.4917
lfingers 7.12502
lthumb 13.1793 55.0552
rfemur -15.9513 4.90576 16.5068
rtibia 35.0598
rfoot -22.0706 -4.40121
rtoes 4.08188
lfemur -10.2853 0.878649 -26.1553
ltibia 24.8719
lfoot -15.8765 -0.830248
ltoes 0.0668333
